<?xml version="1.0" encoding="UTF-8"?>
<svg width="184px" height="36px" viewBox="0 0 184 36" version="1.1" xmlns="http://www.w3.org/2000/svg" xmlns:xlink="http://www.w3.org/1999/xlink">
    <!-- Generator: Sketch 53.2 (72643) - https://sketchapp.com -->
    <title>devias-logo</title>
    <desc>Created with Sketch.</desc>
    <defs>
        <linearGradient x1="60.846%" y1="29.602%" x2="108.203%" y2="100%" id="linearGradient-1">
            <stop stop-color="#5E52F6" offset="0%"></stop>
            <stop stop-color="#6EE4D7" offset="100%"></stop>
        </linearGradient>
        <linearGradient x1="97.467%" y1="83.376%" x2="40.906%" y2="7.30238092e-10%" id="linearGradient-2">
            <stop stop-color="#5E52F6" offset="0%"></stop>
            <stop stop-color="#6EE4D7" offset="100%"></stop>
        </linearGradient>
    </defs>
    <g id="Page-1" stroke="none" stroke-width="1" fill="none" fill-rule="evenodd">
        <g id="Artboard" transform="translate(-61.000000, -76.000000)" fill-rule="nonzero">
            <g id="devias-logo" transform="translate(61.000000, 76.000000)">
                <g id="D">
                    <path d="M39.9999991,3.28205109 L39.9999991,32.0764278 C39.9999991,33.8890545 38.5305748,35.3584788 36.717948,35.3584788 C35.8474939,35.3584788 35.0126914,35.0126923 34.3971873,34.3971883 L5.60281075,5.60281167 C4.32109007,4.32109099 4.32109007,2.24301118 5.60281075,0.96129051 C6.21831472,0.345786532 7.05311727,-4.79616347e-14 7.92357134,-4.79616347e-14 L36.717948,-4.79616347e-14 C38.5305748,-4.79616347e-14 39.9999991,1.46942432 39.9999991,3.28205109 Z" id="logo-a" fill="url(#linearGradient-1)" transform="translate(22.320760, 17.679239) scale(-1, 1) rotate(-180.000000) translate(-22.320760, -17.679239) "></path>
                    <path d="M40,3.28205109 L40,32.0764278 C40,33.8890545 38.5305757,35.3584788 36.717949,35.3584788 C35.8474948,35.3584788 35.0126923,35.0126923 34.3971883,34.3971883 L1.0658141e-14,-4.79616347e-14 L36.717949,-4.79616347e-14 C38.5305757,-4.79616347e-14 40,1.46942432 40,3.28205109 Z" id="logo-a" fill="url(#linearGradient-2)" transform="translate(20.000000, 17.679239) rotate(-180.000000) translate(-20.000000, -17.679239) "></path>
                </g>
                <path d="M58.1023513,13.9917241 L61.5988935,13.9917241 C61.8349482,13.9917241 62.130012,13.9733335 62.4840941,13.9365517 C62.8381761,13.8997699 63.2143825,13.811495 63.6127247,13.6717241 C64.011067,13.5319533 64.405715,13.3296565 64.7966805,13.0648276 C65.1876461,12.7999987 65.5380344,12.4395425 65.8478561,11.9834483 C66.1576779,11.527354 66.4121705,10.9572448 66.6113416,10.2731034 C66.8105128,9.58896209 66.9100968,8.76138414 66.9100968,7.79034483 C66.9100968,6.84873092 66.8178893,6.00644049 66.6334717,5.26344828 C66.4490539,4.52045607 66.1466134,3.88781871 65.7261411,3.36551724 C65.3056687,2.84321578 64.7634888,2.44597837 64.099585,2.17379311 C63.4356813,1.90160783 62.616879,1.76551724 61.6431535,1.76551724 L58.1023513,1.76551724 L58.1023513,13.9917241 Z M56,0 L61.4218534,0 C63.8561671,0 65.7298228,0.617924856 67.0428769,1.85379311 C68.3559309,3.08966135 69.0124481,4.97286094 69.0124481,7.50344828 C69.0124481,8.82759283 68.8649162,10.0009144 68.5698479,11.0234483 C68.2747795,12.0459821 67.8174305,12.9066632 67.197787,13.6055172 C66.5781435,14.3043713 65.7888476,14.8376993 64.8298755,15.2055172 C63.8709034,15.5733352 62.7349074,15.7572414 61.4218534,15.7572414 L56,15.7572414 L56,0 Z M79.2143845,8.96 C79.1848777,8.5186185 79.0852936,8.09931235 78.9156294,7.70206894 C78.745965,7.3048256 78.5172905,6.96276007 78.2295989,6.67586205 C77.9419073,6.3889641 77.6025838,6.16092042 77.2116182,5.9917241 C76.8206527,5.82252786 76.3891217,5.73793106 75.9170125,5.73793106 C75.4301497,5.73793106 74.9912422,5.82252786 74.6002766,5.9917241 C74.2093111,6.16092042 73.8736759,6.39264223 73.593361,6.68689656 C73.3130461,6.98115089 73.0917482,7.32321642 72.9294606,7.71310344 C72.767173,8.10299047 72.6712772,8.5186185 72.6417704,8.96 L79.2143845,8.96 Z M81.0290456,12.1379311 C80.7782376,13.4179375 80.2249928,14.381606 79.3692946,15.0289655 C78.5135965,15.6763251 77.4366132,16 76.1383126,16 C75.2236008,16 74.4306166,15.8528751 73.7593361,15.5586207 C73.0880557,15.2643663 72.5237459,14.8524164 72.0663901,14.3227586 C71.6090342,13.7931008 71.2660223,13.1604634 71.0373444,12.4248276 C70.8086664,11.6891917 70.679576,10.8873607 70.6500691,10.0193103 C70.6500691,9.15126003 70.7828479,8.35678518 71.0484094,7.63586205 C71.3139709,6.91493892 71.686489,6.28965781 72.1659751,5.76 C72.6454611,5.23034219 73.2134591,4.81839228 73.8699862,4.52413795 C74.5265132,4.22988362 75.2457315,4.08275861 76.0276625,4.08275861 C77.0456482,4.08275861 77.8902687,4.29241169 78.5615491,4.7117241 C79.2328296,5.13103659 79.7713212,5.66436459 80.1770401,6.3117241 C80.582759,6.95908369 80.8630698,7.66528355 81.0179807,8.43034483 C81.1728915,9.19540612 81.2355926,9.92367471 81.2060858,10.6151724 L72.6417704,10.6151724 C72.627017,11.1154048 72.6860298,11.5898828 72.8188105,12.0386207 C72.9515912,12.4873585 73.1655126,12.884596 73.4605809,13.2303448 C73.7556493,13.5760937 74.1318557,13.851953 74.5892116,14.0579311 C75.0465675,14.2639091 75.5850591,14.3668966 76.2047026,14.3668966 C77.0013871,14.3668966 77.654216,14.1829903 78.1632088,13.8151724 C78.6722017,13.4473545 79.0078369,12.8882796 79.1701245,12.1379311 L81.0290456,12.1379311 Z M88.3098202,15.7572414 L86.2959889,15.7572414 L82.0470263,4.34758623 L84.1493776,4.34758623 L87.3582296,13.8593103 L87.4024896,13.8593103 L90.5228216,4.34758623 L92.4923928,4.34758623 L88.3098202,15.7572414 Z M96.2102351,2.29517241 L94.3291839,2.29517241 L94.3291839,0 L96.2102351,0 L96.2102351,2.29517241 Z M94.3291839,4.34758623 L96.2102351,4.34758623 L96.2102351,15.7572414 L94.3291839,15.7572414 L94.3291839,4.34758623 Z M109.266943,15.7131034 C108.942368,15.9043688 108.492396,16 107.917012,16 C107.43015,16 107.042879,15.8639094 106.755187,15.5917241 C106.467495,15.3195389 106.323651,14.8744858 106.323651,14.2565517 C105.807282,14.8744858 105.206089,15.3195389 104.520056,15.5917241 C103.834022,15.8639094 103.092673,16 102.295989,16 C101.779619,16 101.289075,15.94115 100.824343,15.8234483 C100.35961,15.7057465 99.9575861,15.5218403 99.6182574,15.2717241 C99.2789287,15.0216079 99.0096828,14.6942549 98.810512,14.2896552 C98.6113405,13.8850554 98.5117565,13.3958649 98.5117565,12.8220689 C98.5117565,12.1747094 98.6224056,11.6450595 98.8437064,11.2331034 C99.065008,10.8211473 99.3563833,10.4864381 99.7178421,10.2289655 C100.079301,9.97149294 100.49239,9.77655242 100.957123,9.64413795 C101.421856,9.51172348 101.897646,9.40137976 102.384509,9.31310344 C102.900879,9.21011443 103.391423,9.13287381 103.856155,9.08137934 C104.320888,9.0298848 104.730289,8.9563223 105.084371,8.86068967 C105.438453,8.76505697 105.718763,8.62528828 105.925311,8.44137934 C106.131859,8.25747033 106.235131,7.9889673 106.235131,7.63586205 C106.235131,7.22390602 106.157677,6.89287478 106.002766,6.64275861 C105.847855,6.39264243 105.648687,6.20137997 105.405256,6.0689655 C105.161825,5.9365511 104.88889,5.8482761 104.586445,5.80413795 C104.284,5.75999979 103.985248,5.73793106 103.690179,5.73793106 C102.893496,5.73793106 102.229601,5.88873412 101.698479,6.19034483 C101.167356,6.49195555 100.879668,7.06206477 100.835408,7.90068967 L98.9543569,7.90068967 C98.9838637,7.19447923 99.1313955,6.5986231 99.3969572,6.11310344 C99.662519,5.62758379 100.016595,5.23402449 100.459198,4.93241377 C100.9018,4.63080306 101.407097,4.41379374 101.975104,4.28137934 C102.54311,4.14896487 103.151679,4.08275861 103.80083,4.08275861 C104.317199,4.08275861 104.829873,4.1195399 105.338866,4.19310344 C105.847859,4.26666706 106.308896,4.41747012 106.721992,4.64551722 C107.135087,4.87356438 107.467034,5.19356118 107.717842,5.60551722 C107.96865,6.01747332 108.094053,6.55447944 108.094053,7.21655172 L108.094053,13.0868966 C108.094053,13.5282781 108.119871,13.851953 108.171507,14.0579311 C108.223144,14.2639091 108.396495,14.3668966 108.691563,14.3668966 C108.85385,14.3668966 109.045642,14.3301153 109.266943,14.2565517 L109.266943,15.7131034 Z M106.213001,9.86482762 C105.976947,10.0413802 105.66713,10.1701145 105.283541,10.2510345 C104.899952,10.3319544 104.497928,10.3981607 104.077455,10.4496552 C103.656983,10.5011497 103.232829,10.5599997 102.804979,10.6262069 C102.37713,10.6924141 101.993547,10.7990797 101.654218,10.9462069 C101.31489,11.0933341 101.038268,11.3029871 100.824343,11.5751724 C100.610419,11.8473577 100.503458,12.2188482 100.503458,12.6896552 C100.503458,12.9986223 100.566159,13.259769 100.691563,13.4731034 C100.816967,13.6864378 100.979252,13.8593097 101.178423,13.9917241 C101.377594,14.1241386 101.609957,14.2197698 101.875519,14.2786207 C102.14108,14.3374716 102.421391,14.3668966 102.716459,14.3668966 C103.336103,14.3668966 103.867217,14.2822997 104.309821,14.1131034 C104.752423,13.9439072 105.113876,13.730576 105.394191,13.4731034 C105.674506,13.2156309 105.88105,12.9360935 106.013831,12.6344828 C106.146612,12.3328721 106.213001,12.0496565 106.213001,11.7848276 L106.213001,9.86482762 Z M112.165975,12.16 C112.180728,12.5719561 112.276624,12.9213779 112.453665,13.2082759 C112.630706,13.4951738 112.863069,13.7232175 113.150761,13.8924138 C113.438452,14.06161 113.763023,14.1829881 114.124481,14.2565517 C114.48594,14.3301153 114.858458,14.3668966 115.242047,14.3668966 C115.537115,14.3668966 115.846932,14.3448278 116.171507,14.3006897 C116.496083,14.2565515 116.794835,14.1756328 117.067773,14.0579311 C117.340712,13.9402293 117.565697,13.7673575 117.742739,13.5393103 C117.919779,13.3112632 118.008298,13.0206914 118.008298,12.6675862 C118.008298,12.1820665 117.823884,11.8142541 117.455048,11.5641379 C117.086213,11.3140217 116.625176,11.1117249 116.071923,10.9572414 C115.518669,10.8027578 114.917477,10.6629891 114.268326,10.5379311 C113.619176,10.4128729 113.017983,10.236323 112.46473,10.0082759 C111.911477,9.78022873 111.45044,9.46023193 111.081604,9.0482759 C110.712769,8.63631979 110.528354,8.06253238 110.528354,7.32689656 C110.528354,6.75310059 110.657445,6.26023193 110.915629,5.8482759 C111.173814,5.43631979 111.505761,5.1016105 111.91148,4.84413795 C112.317199,4.58666539 112.774548,4.39540292 113.283541,4.27034483 C113.792534,4.14528675 114.29783,4.08275861 114.799447,4.08275861 C115.448597,4.08275861 116.046102,4.1379305 116.591978,4.2482759 C117.137855,4.35862122 117.621021,4.54988369 118.041494,4.82206894 C118.461966,5.09425426 118.797601,5.46206664 119.04841,5.92551722 C119.299217,6.38896786 119.446749,6.96643332 119.491009,7.65793106 L117.609958,7.65793106 C117.580451,7.29011311 117.484556,6.9848288 117.322269,6.74206894 C117.159981,6.49930915 116.953436,6.30436856 116.702628,6.15724139 C116.45182,6.01011423 116.175197,5.90344863 115.872753,5.83724139 C115.570307,5.77103416 115.264179,5.73793106 114.954357,5.73793106 C114.674042,5.73793106 114.390043,5.75999979 114.102351,5.80413795 C113.814659,5.8482761 113.55279,5.92551666 113.316736,6.03586205 C113.080681,6.14620744 112.88889,6.29333238 112.741355,6.47724139 C112.593821,6.66115033 112.520056,6.90022838 112.520056,7.19448278 C112.520056,7.5181625 112.634392,7.7866656 112.863071,8 C113.091748,8.2133344 113.383124,8.38988438 113.737206,8.52965517 C114.091288,8.66942602 114.489624,8.78712598 114.932227,8.88275861 C115.374829,8.9783913 115.817425,9.07770066 116.260028,9.18068967 C116.732137,9.28367868 117.193174,9.40873489 117.643153,9.55586205 C118.093133,9.70298922 118.491469,9.89792981 118.838175,10.1406897 C119.184879,10.3834495 119.46519,10.6887338 119.679115,11.0565517 C119.893039,11.4243697 120,11.880457 120,12.4248276 C120,13.1163253 119.856157,13.6901127 119.568465,14.1462069 C119.280773,14.6023011 118.904567,14.9701135 118.439834,15.2496552 C117.975101,15.5291968 117.451363,15.7241374 116.868603,15.8344828 C116.285843,15.9448281 115.706781,16 115.131397,16 C114.497,16 113.892119,15.9337937 113.316736,15.8013793 C112.741352,15.6689649 112.232367,15.4519555 111.789765,15.1503448 C111.347162,14.8487341 110.993086,14.4514967 110.727524,13.9586207 C110.461962,13.4657447 110.314431,12.8662104 110.284924,12.16 L112.165975,12.16 Z" id="Devias" fill="#3A3B3F"></path>
                <path d="M56.936,24.432 L60.968,24.432 C61.7840041,24.432 62.4219977,24.631998 62.882,25.032 C63.3420023,25.432002 63.572,25.9799965 63.572,26.676 C63.572,27.1960026 63.4540012,27.651998 63.218,28.044 C62.9819988,28.436002 62.6040026,28.7039993 62.084,28.848 L62.084,28.872 C62.3320012,28.9200002 62.5339992,28.9999994 62.69,29.112 C62.8460008,29.2240006 62.9699995,29.3579992 63.062,29.514 C63.1540005,29.6700008 63.2219998,29.843999 63.266,30.036 C63.3100002,30.228001 63.3439999,30.427999 63.368,30.636 C63.3840001,30.844001 63.396,31.0559989 63.404,31.272 C63.412,31.4880011 63.4319998,31.699999 63.464,31.908 C63.4960002,32.116001 63.5419997,32.3139991 63.602,32.502 C63.6620003,32.6900009 63.7519994,32.8559993 63.872,33 L62.6,33 C62.5199996,32.9119996 62.4660001,32.7920008 62.438,32.64 C62.4099999,32.4879992 62.392,32.3180009 62.384,32.13 C62.376,31.9419991 62.368,31.7400011 62.36,31.524 C62.352,31.3079989 62.3280002,31.096001 62.288,30.888 C62.2559998,30.679999 62.2160002,30.4820009 62.168,30.294 C62.1199998,30.1059991 62.0440005,29.9420007 61.94,29.802 C61.8359995,29.6619993 61.7000008,29.5500004 61.532,29.466 C61.3639992,29.3819996 61.1400014,29.34 60.86,29.34 L58.076,29.34 L58.076,33 L56.936,33 L56.936,24.432 Z M60.452,28.38 C60.7160013,28.38 60.9679988,28.3600002 61.208,28.32 C61.4480012,28.2799998 61.6579991,28.2020006 61.838,28.086 C62.0180009,27.9699994 62.1619995,27.814001 62.27,27.618 C62.3780005,27.421999 62.432,27.1680016 62.432,26.856 C62.432,26.4239978 62.3120012,26.0720014 62.072,25.8 C61.8319988,25.5279986 61.4440027,25.392 60.908,25.392 L58.076,25.392 L58.076,28.38 L60.452,28.38 Z M69.296,29.304 C69.2799999,29.0639988 69.2260005,28.8360011 69.134,28.62 C69.0419995,28.4039989 68.9180008,28.2180008 68.762,28.062 C68.6059992,27.9059992 68.4220011,27.7820005 68.21,27.69 C67.9979989,27.5979995 67.7640013,27.552 67.508,27.552 C67.2439987,27.552 67.0060011,27.5979995 66.794,27.69 C66.5819989,27.7820005 66.4000008,27.9079992 66.248,28.068 C66.0959992,28.2280008 65.9760004,28.4139989 65.888,28.626 C65.7999996,28.8380011 65.7480001,29.0639988 65.732,29.304 L69.296,29.304 Z M70.28,31.032 C70.1439993,31.7280035 69.8440023,32.2519982 69.38,32.604 C68.9159977,32.9560018 68.3320035,33.132 67.628,33.132 C67.1319975,33.132 66.7020018,33.0520008 66.338,32.892 C65.9739982,32.7319992 65.6680012,32.5080014 65.42,32.22 C65.1719988,31.9319986 64.9860006,31.588002 64.862,31.188 C64.7379994,30.787998 64.6680001,30.3520024 64.652,29.88 C64.652,29.4079976 64.7239993,28.976002 64.868,28.584 C65.0120007,28.191998 65.2139987,27.8520014 65.474,27.564 C65.7340013,27.2759986 66.0419982,27.0520008 66.398,26.892 C66.7540018,26.7319992 67.1439979,26.652 67.568,26.652 C68.1200028,26.652 68.5779982,26.7659989 68.942,26.994 C69.3060018,27.2220011 69.5979989,27.5119982 69.818,27.864 C70.0380011,28.2160018 70.1899996,28.5999979 70.274,29.016 C70.3580004,29.4320021 70.3920001,29.8279981 70.376,30.204 L65.732,30.204 C65.724,30.4760014 65.7559996,30.7339988 65.828,30.978 C65.9000004,31.2220012 66.0159992,31.4379991 66.176,31.626 C66.3360008,31.8140009 66.5399988,31.9639994 66.788,32.076 C67.0360012,32.1880006 67.3279983,32.244 67.664,32.244 C68.0960022,32.244 68.4499986,32.144001 68.726,31.944 C69.0020014,31.743999 69.1839996,31.440002 69.272,31.032 L70.28,31.032 Z M72.056,31.044 C72.064,31.2680011 72.1159995,31.4579992 72.212,31.614 C72.3080005,31.7700008 72.4339992,31.8939995 72.59,31.986 C72.7460008,32.0780005 72.921999,32.1439998 73.118,32.184 C73.314001,32.2240002 73.515999,32.244 73.724,32.244 C73.8840008,32.244 74.0519991,32.2320001 74.228,32.208 C74.4040009,32.1839999 74.5659993,32.1400003 74.714,32.076 C74.8620007,32.0119997 74.9839995,31.9180006 75.08,31.794 C75.1760005,31.6699994 75.224,31.512001 75.224,31.32 C75.224,31.0559987 75.124001,30.8560007 74.924,30.72 C74.723999,30.5839993 74.4740015,30.4740004 74.174,30.39 C73.8739985,30.3059996 73.5480018,30.2300003 73.196,30.162 C72.8439982,30.0939997 72.5180015,29.9980006 72.218,29.874 C71.9179985,29.7499994 71.668001,29.5760011 71.468,29.352 C71.267999,29.1279989 71.168,28.816002 71.168,28.416 C71.168,28.1039984 71.2379993,27.8360011 71.378,27.612 C71.5180007,27.3879989 71.6979989,27.2060007 71.918,27.066 C72.1380011,26.9259993 72.3859986,26.8220003 72.662,26.754 C72.9380014,26.6859997 73.2119986,26.652 73.484,26.652 C73.8360018,26.652 74.1599985,26.6819997 74.456,26.742 C74.7520015,26.8020003 75.0139989,26.9059993 75.242,27.054 C75.4700011,27.2020007 75.6519993,27.4019987 75.788,27.654 C75.9240007,27.9060013 76.0039999,28.2199981 76.028,28.596 L75.008,28.596 C74.9919999,28.395999 74.9400004,28.2300007 74.852,28.098 C74.7639996,27.9659993 74.6520007,27.8600004 74.516,27.78 C74.3799993,27.6999996 74.2300008,27.6420002 74.066,27.606 C73.9019992,27.5699998 73.7360008,27.552 73.568,27.552 C73.4159992,27.552 73.2620008,27.5639999 73.106,27.588 C72.9499992,27.6120001 72.8080006,27.6539997 72.68,27.714 C72.5519994,27.7740003 72.4480004,27.8539995 72.368,27.954 C72.2879996,28.0540005 72.248,28.1839992 72.248,28.344 C72.248,28.5200009 72.3099994,28.6659994 72.434,28.782 C72.5580006,28.8980006 72.715999,28.9939996 72.908,29.07 C73.100001,29.1460004 73.3159988,29.2099997 73.556,29.262 C73.7960012,29.3140003 74.0359988,29.3679997 74.276,29.424 C74.5320013,29.4800003 74.7819988,29.5479996 75.026,29.628 C75.2700012,29.7080004 75.4859991,29.8139993 75.674,29.946 C75.8620009,30.0780007 76.0139994,30.243999 76.13,30.444 C76.2460006,30.644001 76.304,30.8919985 76.304,31.188 C76.304,31.5640019 76.2260008,31.8759988 76.07,32.124 C75.9139992,32.3720012 75.7100013,32.5719992 75.458,32.724 C75.2059987,32.8760008 74.9220016,32.9819997 74.606,33.042 C74.2899984,33.1020003 73.9760016,33.132 73.664,33.132 C73.3199983,33.132 72.9920016,33.0960004 72.68,33.024 C72.3679984,32.9519996 72.0920012,32.8340008 71.852,32.67 C71.6119988,32.5059992 71.4200007,32.2900013 71.276,32.022 C71.1319993,31.7539987 71.0520001,31.4280019 71.036,31.044 L72.056,31.044 Z M78.176,29.904 C78.176,30.2800019 78.2259995,30.6139985 78.326,30.906 C78.4260005,31.1980015 78.5639991,31.441999 78.74,31.638 C78.9160009,31.834001 79.1219988,31.9839995 79.358,32.088 C79.5940012,32.1920005 79.8439987,32.244 80.108,32.244 C80.3720013,32.244 80.6219988,32.1920005 80.858,32.088 C81.0940012,31.9839995 81.2999991,31.834001 81.476,31.638 C81.6520009,31.441999 81.7899995,31.1980015 81.89,30.906 C81.9900005,30.6139985 82.04,30.2800019 82.04,29.904 C82.04,29.5279981 81.9900005,29.1940015 81.89,28.902 C81.7899995,28.6099985 81.6520009,28.364001 81.476,28.164 C81.2999991,27.963999 81.0940012,27.8120005 80.858,27.708 C80.6219988,27.6039995 80.3720013,27.552 80.108,27.552 C79.8439987,27.552 79.5940012,27.6039995 79.358,27.708 C79.1219988,27.8120005 78.9160009,27.963999 78.74,28.164 C78.5639991,28.364001 78.4260005,28.6099985 78.326,28.902 C78.2259995,29.1940015 78.176,29.5279981 78.176,29.904 Z M77.096,29.904 C77.096,29.4479977 77.1599994,29.022002 77.288,28.626 C77.4160006,28.229998 77.6079987,27.8860015 77.864,27.594 C78.1200013,27.3019985 78.4359981,27.0720008 78.812,26.904 C79.1880019,26.7359992 79.6199976,26.652 80.108,26.652 C80.6040025,26.652 81.0379981,26.7359992 81.41,26.904 C81.7820019,27.0720008 82.0959987,27.3019985 82.352,27.594 C82.6080013,27.8860015 82.7999994,28.229998 82.928,28.626 C83.0560006,29.022002 83.12,29.4479977 83.12,29.904 C83.12,30.3600023 83.0560006,30.783998 82.928,31.176 C82.7999994,31.568002 82.6080013,31.9099985 82.352,32.202 C82.0959987,32.4940015 81.7820019,32.7219992 81.41,32.886 C81.0379981,33.0500008 80.6040025,33.132 80.108,33.132 C79.6199976,33.132 79.1880019,33.0500008 78.812,32.886 C78.4359981,32.7219992 78.1200013,32.4940015 77.864,32.202 C77.6079987,31.9099985 77.4160006,31.568002 77.288,31.176 C77.1599994,30.783998 77.096,30.3600023 77.096,29.904 Z M89.456,33 L88.496,33 L88.496,32.016 L88.472,32.016 C88.2559989,32.4000019 87.9800017,32.6819991 87.644,32.862 C87.3079983,33.0420009 86.9120023,33.132 86.456,33.132 C86.047998,33.132 85.7080014,33.0780005 85.436,32.97 C85.1639986,32.8619995 84.9440008,32.708001 84.776,32.508 C84.6079992,32.307999 84.4900003,32.0700014 84.422,31.794 C84.3539997,31.5179986 84.32,31.2120017 84.32,30.876 L84.32,26.796 L85.34,26.796 L85.34,30.996 C85.34,31.3800019 85.4519989,31.6839989 85.676,31.908 C85.9000011,32.1320011 86.207998,32.244 86.6,32.244 C86.9120016,32.244 87.1819989,32.1960005 87.41,32.1 C87.6380011,32.0039995 87.8279992,31.8680009 87.98,31.692 C88.1320008,31.5159991 88.2459996,31.3100012 88.322,31.074 C88.3980004,30.8379988 88.436,30.5800014 88.436,30.3 L88.436,26.796 L89.456,26.796 L89.456,33 Z M90.956,26.796 L91.916,26.796 L91.916,28.104 L91.94,28.104 C92.1880012,27.5999975 92.4919982,27.2280012 92.852,26.988 C93.2120018,26.7479988 93.6679972,26.6359999 94.22,26.652 L94.22,27.732 C93.811998,27.732 93.4640014,27.7879994 93.176,27.9 C92.8879986,28.0120006 92.6560009,28.1759989 92.48,28.392 C92.3039991,28.6080011 92.1760004,28.8699985 92.096,29.178 C92.0159996,29.4860015 91.976,29.839998 91.976,30.24 L91.976,33 L90.956,33 L90.956,26.796 Z M99.2,28.788 C99.1199996,28.395998 98.9520013,28.0920011 98.696,27.876 C98.4399987,27.6599989 98.0960022,27.552 97.664,27.552 C97.2959982,27.552 96.9880012,27.6199993 96.74,27.756 C96.4919988,27.8920007 96.2940007,28.0719989 96.146,28.296 C95.9979993,28.5200011 95.8920003,28.7779985 95.828,29.07 C95.7639997,29.3620015 95.732,29.6639984 95.732,29.976 C95.732,30.2640014 95.7659997,30.5439986 95.834,30.816 C95.9020003,31.0880014 96.0079993,31.3299989 96.152,31.542 C96.2960007,31.7540011 96.4839988,31.9239994 96.716,32.052 C96.9480012,32.1800006 97.2239984,32.244 97.544,32.244 C98.0480025,32.244 98.4419986,32.1120013 98.726,31.848 C99.0100014,31.5839987 99.1839997,31.2120024 99.248,30.732 L100.292,30.732 C100.179999,31.5000038 99.8940023,32.0919979 99.434,32.508 C98.9739977,32.9240021 98.348004,33.132 97.556,33.132 C97.0839976,33.132 96.6660018,33.0560008 96.302,32.904 C95.9379982,32.7519992 95.6340012,32.5360014 95.39,32.256 C95.1459988,31.9759986 94.9620006,31.6420019 94.838,31.254 C94.7139994,30.8659981 94.652,30.4400023 94.652,29.976 C94.652,29.5119977 94.7119994,29.078002 94.832,28.674 C94.9520006,28.269998 95.1339988,27.9180015 95.378,27.618 C95.6220012,27.3179985 95.9279982,27.0820009 96.296,26.91 C96.6640018,26.7379991 97.0919976,26.652 97.58,26.652 C97.9320018,26.652 98.2619985,26.6939996 98.57,26.778 C98.8780015,26.8620004 99.1499988,26.9919991 99.386,27.168 C99.6220012,27.3440009 99.8159992,27.5659987 99.968,27.834 C100.120001,28.1020013 100.216,28.4199982 100.256,28.788 L99.2,28.788 Z M105.74,29.304 C105.724,29.0639988 105.67,28.8360011 105.578,28.62 C105.486,28.4039989 105.362001,28.2180008 105.206,28.062 C105.049999,27.9059992 104.866001,27.7820005 104.654,27.69 C104.441999,27.5979995 104.208001,27.552 103.952,27.552 C103.687999,27.552 103.450001,27.5979995 103.238,27.69 C103.025999,27.7820005 102.844001,27.9079992 102.692,28.068 C102.539999,28.2280008 102.42,28.4139989 102.332,28.626 C102.244,28.8380011 102.192,29.0639988 102.176,29.304 L105.74,29.304 Z M106.724,31.032 C106.587999,31.7280035 106.288002,32.2519982 105.824,32.604 C105.359998,32.9560018 104.776004,33.132 104.072,33.132 C103.575998,33.132 103.146002,33.0520008 102.782,32.892 C102.417998,32.7319992 102.112001,32.5080014 101.864,32.22 C101.615999,31.9319986 101.430001,31.588002 101.306,31.188 C101.181999,30.787998 101.112,30.3520024 101.096,29.88 C101.096,29.4079976 101.167999,28.976002 101.312,28.584 C101.456001,28.191998 101.657999,27.8520014 101.918,27.564 C102.178001,27.2759986 102.485998,27.0520008 102.842,26.892 C103.198002,26.7319992 103.587998,26.652 104.012,26.652 C104.564003,26.652 105.021998,26.7659989 105.386,26.994 C105.750002,27.2220011 106.041999,27.5119982 106.262,27.864 C106.482001,28.2160018 106.634,28.5999979 106.718,29.016 C106.802,29.4320021 106.836,29.8279981 106.82,30.204 L102.176,30.204 C102.168,30.4760014 102.2,30.7339988 102.272,30.978 C102.344,31.2220012 102.459999,31.4379991 102.62,31.626 C102.780001,31.8140009 102.983999,31.9639994 103.232,32.076 C103.480001,32.1880006 103.771998,32.244 104.108,32.244 C104.540002,32.244 104.893999,32.144001 105.17,31.944 C105.446001,31.743999 105.628,31.440002 105.716,31.032 L106.724,31.032 Z M108.5,31.044 C108.508,31.2680011 108.56,31.4579992 108.656,31.614 C108.752,31.7700008 108.877999,31.8939995 109.034,31.986 C109.190001,32.0780005 109.365999,32.1439998 109.562,32.184 C109.758001,32.2240002 109.959999,32.244 110.168,32.244 C110.328001,32.244 110.495999,32.2320001 110.672,32.208 C110.848001,32.1839999 111.009999,32.1400003 111.158,32.076 C111.306001,32.0119997 111.428,31.9180006 111.524,31.794 C111.62,31.6699994 111.668,31.512001 111.668,31.32 C111.668,31.0559987 111.568001,30.8560007 111.368,30.72 C111.167999,30.5839993 110.918002,30.4740004 110.618,30.39 C110.317999,30.3059996 109.992002,30.2300003 109.64,30.162 C109.287998,30.0939997 108.962001,29.9980006 108.662,29.874 C108.361998,29.7499994 108.112001,29.5760011 107.912,29.352 C107.711999,29.1279989 107.612,28.816002 107.612,28.416 C107.612,28.1039984 107.681999,27.8360011 107.822,27.612 C107.962001,27.3879989 108.141999,27.2060007 108.362,27.066 C108.582001,26.9259993 108.829999,26.8220003 109.106,26.754 C109.382001,26.6859997 109.655999,26.652 109.928,26.652 C110.280002,26.652 110.603999,26.6819997 110.9,26.742 C111.196001,26.8020003 111.457999,26.9059993 111.686,27.054 C111.914001,27.2020007 112.095999,27.4019987 112.232,27.654 C112.368001,27.9060013 112.448,28.2199981 112.472,28.596 L111.452,28.596 C111.436,28.395999 111.384,28.2300007 111.296,28.098 C111.208,27.9659993 111.096001,27.8600004 110.96,27.78 C110.823999,27.6999996 110.674001,27.6420002 110.51,27.606 C110.345999,27.5699998 110.180001,27.552 110.012,27.552 C109.859999,27.552 109.706001,27.5639999 109.55,27.588 C109.393999,27.6120001 109.252001,27.6539997 109.124,27.714 C108.995999,27.7740003 108.892,27.8539995 108.812,27.954 C108.732,28.0540005 108.692,28.1839992 108.692,28.344 C108.692,28.5200009 108.753999,28.6659994 108.878,28.782 C109.002001,28.8980006 109.159999,28.9939996 109.352,29.07 C109.544001,29.1460004 109.759999,29.2099997 110,29.262 C110.240001,29.3140003 110.479999,29.3679997 110.72,29.424 C110.976001,29.4800003 111.225999,29.5479996 111.47,29.628 C111.714001,29.7080004 111.929999,29.8139993 112.118,29.946 C112.306001,30.0780007 112.457999,30.243999 112.574,30.444 C112.690001,30.644001 112.748,30.8919985 112.748,31.188 C112.748,31.5640019 112.670001,31.8759988 112.514,32.124 C112.357999,32.3720012 112.154001,32.5719992 111.902,32.724 C111.649999,32.8760008 111.366002,32.9819997 111.05,33.042 C110.733998,33.1020003 110.420002,33.132 110.108,33.132 C109.763998,33.132 109.436002,33.0960004 109.124,33.024 C108.811998,32.9519996 108.536001,32.8340008 108.296,32.67 C108.055999,32.5059992 107.864001,32.2900013 107.72,32.022 C107.575999,31.7539987 107.496,31.4280019 107.48,31.044 L108.5,31.044 Z M117.632,27.696 L116.588,27.696 L116.588,26.796 L117.632,26.796 L117.632,25.872 C117.632,25.3679975 117.777999,24.9860013 118.07,24.726 C118.362001,24.4659987 118.787997,24.336 119.348,24.336 C119.444,24.336 119.553999,24.3439999 119.678,24.36 C119.802001,24.3760001 119.912,24.3999998 120.008,24.432 L120.008,25.32 C119.92,25.2879998 119.824001,25.2660001 119.72,25.254 C119.615999,25.2419999 119.52,25.236 119.432,25.236 C119.183999,25.236 118.992001,25.2839995 118.856,25.38 C118.719999,25.4760005 118.652,25.6599986 118.652,25.932 L118.652,26.796 L119.852,26.796 L119.852,27.696 L118.652,27.696 L118.652,33 L117.632,33 L117.632,27.696 Z M121.508,29.904 C121.508,30.2800019 121.557999,30.6139985 121.658,30.906 C121.758001,31.1980015 121.895999,31.441999 122.072,31.638 C122.248001,31.834001 122.453999,31.9839995 122.69,32.088 C122.926001,32.1920005 123.175999,32.244 123.44,32.244 C123.704001,32.244 123.953999,32.1920005 124.19,32.088 C124.426001,31.9839995 124.631999,31.834001 124.808,31.638 C124.984001,31.441999 125.122,31.1980015 125.222,30.906 C125.322001,30.6139985 125.372,30.2800019 125.372,29.904 C125.372,29.5279981 125.322001,29.1940015 125.222,28.902 C125.122,28.6099985 124.984001,28.364001 124.808,28.164 C124.631999,27.963999 124.426001,27.8120005 124.19,27.708 C123.953999,27.6039995 123.704001,27.552 123.44,27.552 C123.175999,27.552 122.926001,27.6039995 122.69,27.708 C122.453999,27.8120005 122.248001,27.963999 122.072,28.164 C121.895999,28.364001 121.758001,28.6099985 121.658,28.902 C121.557999,29.1940015 121.508,29.5279981 121.508,29.904 Z M120.428,29.904 C120.428,29.4479977 120.491999,29.022002 120.62,28.626 C120.748001,28.229998 120.939999,27.8860015 121.196,27.594 C121.452001,27.3019985 121.767998,27.0720008 122.144,26.904 C122.520002,26.7359992 122.951998,26.652 123.44,26.652 C123.936002,26.652 124.369998,26.7359992 124.742,26.904 C125.114002,27.0720008 125.427999,27.3019985 125.684,27.594 C125.940001,27.8860015 126.131999,28.229998 126.26,28.626 C126.388001,29.022002 126.452,29.4479977 126.452,29.904 C126.452,30.3600023 126.388001,30.783998 126.26,31.176 C126.131999,31.568002 125.940001,31.9099985 125.684,32.202 C125.427999,32.4940015 125.114002,32.7219992 124.742,32.886 C124.369998,33.0500008 123.936002,33.132 123.44,33.132 C122.951998,33.132 122.520002,33.0500008 122.144,32.886 C121.767998,32.7219992 121.452001,32.4940015 121.196,32.202 C120.939999,31.9099985 120.748001,31.568002 120.62,31.176 C120.491999,30.783998 120.428,30.3600023 120.428,29.904 Z M127.616,26.796 L128.576,26.796 L128.576,28.104 L128.6,28.104 C128.848001,27.5999975 129.151998,27.2280012 129.512,26.988 C129.872002,26.7479988 130.327997,26.6359999 130.88,26.652 L130.88,27.732 C130.471998,27.732 130.124001,27.7879994 129.836,27.9 C129.547999,28.0120006 129.316001,28.1759989 129.14,28.392 C128.963999,28.6080011 128.836,28.8699985 128.756,29.178 C128.676,29.4860015 128.636,29.839998 128.636,30.24 L128.636,33 L127.616,33 L127.616,26.796 Z M141.128,33 L140.048,33 L138.788,28.068 L138.764,28.068 L137.516,33 L136.412,33 L134.42,26.796 L135.548,26.796 L136.952,31.872 L136.976,31.872 L138.224,26.796 L139.34,26.796 L140.636,31.872 L140.66,31.872 L142.052,26.796 L143.108,26.796 L141.128,33 Z M148.388,29.304 C148.372,29.0639988 148.318,28.8360011 148.226,28.62 C148.134,28.4039989 148.010001,28.2180008 147.854,28.062 C147.697999,27.9059992 147.514001,27.7820005 147.302,27.69 C147.089999,27.5979995 146.856001,27.552 146.6,27.552 C146.335999,27.552 146.098001,27.5979995 145.886,27.69 C145.673999,27.7820005 145.492001,27.9079992 145.34,28.068 C145.187999,28.2280008 145.068,28.4139989 144.98,28.626 C144.892,28.8380011 144.84,29.0639988 144.824,29.304 L148.388,29.304 Z M149.372,31.032 C149.235999,31.7280035 148.936002,32.2519982 148.472,32.604 C148.007998,32.9560018 147.424004,33.132 146.72,33.132 C146.223998,33.132 145.794002,33.0520008 145.43,32.892 C145.065998,32.7319992 144.760001,32.5080014 144.512,32.22 C144.263999,31.9319986 144.078001,31.588002 143.954,31.188 C143.829999,30.787998 143.76,30.3520024 143.744,29.88 C143.744,29.4079976 143.815999,28.976002 143.96,28.584 C144.104001,28.191998 144.305999,27.8520014 144.566,27.564 C144.826001,27.2759986 145.133998,27.0520008 145.49,26.892 C145.846002,26.7319992 146.235998,26.652 146.66,26.652 C147.212003,26.652 147.669998,26.7659989 148.034,26.994 C148.398002,27.2220011 148.689999,27.5119982 148.91,27.864 C149.130001,28.2160018 149.282,28.5999979 149.366,29.016 C149.45,29.4320021 149.484,29.8279981 149.468,30.204 L144.824,30.204 C144.816,30.4760014 144.848,30.7339988 144.92,30.978 C144.992,31.2220012 145.107999,31.4379991 145.268,31.626 C145.428001,31.8140009 145.631999,31.9639994 145.88,32.076 C146.128001,32.1880006 146.419998,32.244 146.756,32.244 C147.188002,32.244 147.541999,32.144001 147.818,31.944 C148.094001,31.743999 148.276,31.440002 148.364,31.032 L149.372,31.032 Z M150.56,24.432 L151.58,24.432 L151.58,27.636 L151.604,27.636 C151.772001,27.2919983 152.035998,27.0420008 152.396,26.886 C152.756002,26.7299992 153.151998,26.652 153.584,26.652 C154.064002,26.652 154.481998,26.7399991 154.838,26.916 C155.194002,27.0920009 155.489999,27.3299985 155.726,27.63 C155.962001,27.9300015 156.139999,28.275998 156.26,28.668 C156.380001,29.060002 156.44,29.4759978 156.44,29.916 C156.44,30.3560022 156.382001,30.771998 156.266,31.164 C156.149999,31.556002 155.974001,31.8979985 155.738,32.19 C155.501999,32.4820015 155.206002,32.7119992 154.85,32.88 C154.493998,33.0480008 154.080002,33.132 153.608,33.132 C153.455999,33.132 153.286001,33.1160002 153.098,33.084 C152.909999,33.0519998 152.724001,33.0000004 152.54,32.928 C152.355999,32.8559996 152.182001,32.7580006 152.018,32.634 C151.853999,32.5099994 151.716001,32.3560009 151.604,32.172 L151.58,32.172 L151.58,33 L150.56,33 L150.56,24.432 Z M155.36,29.844 C155.36,29.5559986 155.322,29.2740014 155.246,28.998 C155.17,28.7219986 155.054001,28.4760011 154.898,28.26 C154.741999,28.0439989 154.542001,27.8720006 154.298,27.744 C154.053999,27.6159994 153.768002,27.552 153.44,27.552 C153.095998,27.552 152.804001,27.6199993 152.564,27.756 C152.323999,27.8920007 152.128001,28.0699989 151.976,28.29 C151.823999,28.5100011 151.714,28.7599986 151.646,29.04 C151.578,29.3200014 151.544,29.6039986 151.544,29.892 C151.544,30.1960015 151.58,30.4899986 151.652,30.774 C151.724,31.0580014 151.837999,31.3079989 151.994,31.524 C152.150001,31.7400011 152.351999,31.9139993 152.6,32.046 C152.848001,32.1780007 153.147998,32.244 153.5,32.244 C153.852002,32.244 154.145999,32.1760007 154.382,32.04 C154.618001,31.9039993 154.807999,31.7240011 154.952,31.5 C155.096001,31.2759989 155.2,31.0200014 155.264,30.732 C155.328,30.4439986 155.36,30.1480015 155.36,29.844 Z M161.012,26.796 L162.032,26.796 L162.032,27.636 L162.056,27.636 C162.224001,27.2919983 162.487998,27.0420008 162.848,26.886 C163.208002,26.7299992 163.603998,26.652 164.036,26.652 C164.516002,26.652 164.933998,26.7399991 165.29,26.916 C165.646002,27.0920009 165.941999,27.3299985 166.178,27.63 C166.414001,27.9300015 166.591999,28.275998 166.712,28.668 C166.832001,29.060002 166.892,29.4759978 166.892,29.916 C166.892,30.3560022 166.834001,30.771998 166.718,31.164 C166.601999,31.556002 166.426001,31.8979985 166.19,32.19 C165.953999,32.4820015 165.658002,32.7119992 165.302,32.88 C164.945998,33.0480008 164.532002,33.132 164.06,33.132 C163.907999,33.132 163.738001,33.1160002 163.55,33.084 C163.361999,33.0519998 163.176001,33.0000004 162.992,32.928 C162.807999,32.8559996 162.634001,32.7580006 162.47,32.634 C162.305999,32.5099994 162.168001,32.3560009 162.056,32.172 L162.032,32.172 L162.032,35.364 L161.012,35.364 L161.012,26.796 Z M165.812,29.844 C165.812,29.5559986 165.774,29.2740014 165.698,28.998 C165.622,28.7219986 165.506001,28.4760011 165.35,28.26 C165.193999,28.0439989 164.994001,27.8720006 164.75,27.744 C164.505999,27.6159994 164.220002,27.552 163.892,27.552 C163.547998,27.552 163.256001,27.6199993 163.016,27.756 C162.775999,27.8920007 162.580001,28.0699989 162.428,28.29 C162.275999,28.5100011 162.166,28.7599986 162.098,29.04 C162.03,29.3200014 161.996,29.6039986 161.996,29.892 C161.996,30.1960015 162.032,30.4899986 162.104,30.774 C162.176,31.0580014 162.289999,31.3079989 162.446,31.524 C162.602001,31.7400011 162.803999,31.9139993 163.052,32.046 C163.300001,32.1780007 163.599998,32.244 163.952,32.244 C164.304002,32.244 164.597999,32.1760007 164.834,32.04 C165.070001,31.9039993 165.259999,31.7240011 165.404,31.5 C165.548001,31.2759989 165.652,31.0200014 165.716,30.732 C165.78,30.4439986 165.812,30.1480015 165.812,29.844 Z M168.056,26.796 L169.016,26.796 L169.016,28.104 L169.04,28.104 C169.288001,27.5999975 169.591998,27.2280012 169.952,26.988 C170.312002,26.7479988 170.767997,26.6359999 171.32,26.652 L171.32,27.732 C170.911998,27.732 170.564001,27.7879994 170.276,27.9 C169.987999,28.0120006 169.756001,28.1759989 169.58,28.392 C169.403999,28.6080011 169.276,28.8699985 169.196,29.178 C169.116,29.4860015 169.076,29.839998 169.076,30.24 L169.076,33 L168.056,33 L168.056,26.796 Z M172.832,29.904 C172.832,30.2800019 172.882,30.6139985 172.982,30.906 C173.082,31.1980015 173.219999,31.441999 173.396,31.638 C173.572001,31.834001 173.777999,31.9839995 174.014,32.088 C174.250001,32.1920005 174.499999,32.244 174.764,32.244 C175.028001,32.244 175.277999,32.1920005 175.514,32.088 C175.750001,31.9839995 175.955999,31.834001 176.132,31.638 C176.308001,31.441999 176.445999,31.1980015 176.546,30.906 C176.646,30.6139985 176.696,30.2800019 176.696,29.904 C176.696,29.5279981 176.646,29.1940015 176.546,28.902 C176.445999,28.6099985 176.308001,28.364001 176.132,28.164 C175.955999,27.963999 175.750001,27.8120005 175.514,27.708 C175.277999,27.6039995 175.028001,27.552 174.764,27.552 C174.499999,27.552 174.250001,27.6039995 174.014,27.708 C173.777999,27.8120005 173.572001,27.963999 173.396,28.164 C173.219999,28.364001 173.082,28.6099985 172.982,28.902 C172.882,29.1940015 172.832,29.5279981 172.832,29.904 Z M171.752,29.904 C171.752,29.4479977 171.815999,29.022002 171.944,28.626 C172.072001,28.229998 172.263999,27.8860015 172.52,27.594 C172.776001,27.3019985 173.091998,27.0720008 173.468,26.904 C173.844002,26.7359992 174.275998,26.652 174.764,26.652 C175.260002,26.652 175.693998,26.7359992 176.066,26.904 C176.438002,27.0720008 176.751999,27.3019985 177.008,27.594 C177.264001,27.8860015 177.455999,28.229998 177.584,28.626 C177.712001,29.022002 177.776,29.4479977 177.776,29.904 C177.776,30.3600023 177.712001,30.783998 177.584,31.176 C177.455999,31.568002 177.264001,31.9099985 177.008,32.202 C176.751999,32.4940015 176.438002,32.7219992 176.066,32.886 C175.693998,33.0500008 175.260002,33.132 174.764,33.132 C174.275998,33.132 173.844002,33.0500008 173.468,32.886 C173.091998,32.7219992 172.776001,32.4940015 172.52,32.202 C172.263999,31.9099985 172.072001,31.568002 171.944,31.176 C171.815999,30.783998 171.752,30.3600023 171.752,29.904 Z M179.6,31.044 C179.608,31.2680011 179.66,31.4579992 179.756,31.614 C179.852,31.7700008 179.977999,31.8939995 180.134,31.986 C180.290001,32.0780005 180.465999,32.1439998 180.662,32.184 C180.858001,32.2240002 181.059999,32.244 181.268,32.244 C181.428001,32.244 181.595999,32.2320001 181.772,32.208 C181.948001,32.1839999 182.109999,32.1400003 182.258,32.076 C182.406001,32.0119997 182.528,31.9180006 182.624,31.794 C182.72,31.6699994 182.768,31.512001 182.768,31.32 C182.768,31.0559987 182.668001,30.8560007 182.468,30.72 C182.267999,30.5839993 182.018001,30.4740004 181.718,30.39 C181.417999,30.3059996 181.092002,30.2300003 180.74,30.162 C180.387998,30.0939997 180.062002,29.9980006 179.762,29.874 C179.461998,29.7499994 179.212001,29.5760011 179.012,29.352 C178.811999,29.1279989 178.712,28.816002 178.712,28.416 C178.712,28.1039984 178.781999,27.8360011 178.922,27.612 C179.062001,27.3879989 179.241999,27.2060007 179.462,27.066 C179.682001,26.9259993 179.929999,26.8220003 180.206,26.754 C180.482001,26.6859997 180.755999,26.652 181.028,26.652 C181.380002,26.652 181.703999,26.6819997 182,26.742 C182.296001,26.8020003 182.557999,26.9059993 182.786,27.054 C183.014001,27.2020007 183.195999,27.4019987 183.332,27.654 C183.468001,27.9060013 183.548,28.2199981 183.572,28.596 L182.552,28.596 C182.536,28.395999 182.484,28.2300007 182.396,28.098 C182.308,27.9659993 182.196001,27.8600004 182.06,27.78 C181.923999,27.6999996 181.774001,27.6420002 181.61,27.606 C181.445999,27.5699998 181.280001,27.552 181.112,27.552 C180.959999,27.552 180.806001,27.5639999 180.65,27.588 C180.493999,27.6120001 180.352001,27.6539997 180.224,27.714 C180.095999,27.7740003 179.992,27.8539995 179.912,27.954 C179.832,28.0540005 179.792,28.1839992 179.792,28.344 C179.792,28.5200009 179.853999,28.6659994 179.978,28.782 C180.102001,28.8980006 180.259999,28.9939996 180.452,29.07 C180.644001,29.1460004 180.859999,29.2099997 181.1,29.262 C181.340001,29.3140003 181.579999,29.3679997 181.82,29.424 C182.076001,29.4800003 182.325999,29.5479996 182.57,29.628 C182.814001,29.7080004 183.029999,29.8139993 183.218,29.946 C183.406001,30.0780007 183.557999,30.243999 183.674,30.444 C183.790001,30.644001 183.848,30.8919985 183.848,31.188 C183.848,31.5640019 183.770001,31.8759988 183.614,32.124 C183.457999,32.3720012 183.254001,32.5719992 183.002,32.724 C182.749999,32.8760008 182.466002,32.9819997 182.15,33.042 C181.833998,33.1020003 181.520002,33.132 181.208,33.132 C180.863998,33.132 180.536002,33.0960004 180.224,33.024 C179.911998,32.9519996 179.636001,32.8340008 179.396,32.67 C179.155999,32.5059992 178.964001,32.2900013 178.82,32.022 C178.675999,31.7539987 178.596,31.4280019 178.58,31.044 L179.6,31.044 Z" id="Resourcesforwebpros" fill-opacity="0.5" fill="#3A3B3F"></path>
            </g>
        </g>
    </g>
</svg>